<?xml version="1.0" encoding="UTF-8" standalone="no"?>
<!-- Created with Inkscape (http://www.inkscape.org/) -->

<svg
   xmlns:dc="http://purl.org/dc/elements/1.1/"
   xmlns:cc="http://creativecommons.org/ns#"
   xmlns:rdf="http://www.w3.org/1999/02/22-rdf-syntax-ns#"
   xmlns:svg="http://www.w3.org/2000/svg"
   xmlns="http://www.w3.org/2000/svg"
   xmlns:sodipodi="http://sodipodi.sourceforge.net/DTD/sodipodi-0.dtd"
   xmlns:inkscape="http://www.inkscape.org/namespaces/inkscape"
   width="512"
   height="512"
   id="svg2"
   version="1.1"
   inkscape:version="0.48.4 r9939"
   sodipodi:docname="logo.svg">
  <defs
     id="defs4" />
  <sodipodi:namedview
     id="base"
     pagecolor="#ffffff"
     bordercolor="#666666"
     borderopacity="1.0"
     inkscape:pageopacity="0.0"
     inkscape:pageshadow="2"
     inkscape:zoom="0.35"
     inkscape:cx="629.30742"
     inkscape:cy="640.56437"
     inkscape:document-units="px"
     inkscape:current-layer="layer1"
     showgrid="false"
     inkscape:window-width="1920"
     inkscape:window-height="1020"
     inkscape:window-x="1920"
     inkscape:window-y="0"
     inkscape:window-maximized="1" />
  <metadata
     id="metadata7">
    <rdf:RDF>
      <cc:Work
         rdf:about="">
        <dc:format>image/svg+xml</dc:format>
        <dc:type
           rdf:resource="http://purl.org/dc/dcmitype/StillImage" />
        <dc:title></dc:title>
      </cc:Work>
    </rdf:RDF>
  </metadata>
  <g
     inkscape:label="://"
     inkscape:groupmode="layer"
     id="layer1"
     transform="translate(0,-540.36218)"
     style="display:inline">
    <text
       xml:space="preserve"
       style="font-size:100px;font-style:normal;font-variant:normal;font-weight:normal;font-stretch:normal;line-height:125%;letter-spacing:0px;word-spacing:0px;fill:#000000;fill-opacity:1;stroke:none;font-family:Ubuntu Mono;-inkscape-font-specification:Ubuntu Mono"
       x="294.28571"
       y="873.79071"
       id="text3140"
       sodipodi:linespacing="125%"><tspan
         sodipodi:role="line"
         id="tspan3142"
         x="294.28571"
         y="873.79071"
         style="font-size:200px;font-style:normal;font-variant:normal;font-weight:normal;font-stretch:normal;font-family:Ubuntu;-inkscape-font-specification:Ubuntu;fill:#000000">://</tspan></text>
    <flowRoot
       xml:space="preserve"
       id="flowRoot3144"
       style="fill:black;stroke:none;stroke-opacity:1;stroke-width:1px;stroke-linejoin:miter;stroke-linecap:butt;fill-opacity:1;font-family:Ubuntu Mono;font-style:normal;font-weight:normal;font-size:100px;line-height:125%;letter-spacing:0px;word-spacing:0px;-inkscape-font-specification:Ubuntu Mono;font-stretch:normal;font-variant:normal"><flowRegion
         id="flowRegion3146"><rect
           id="rect3148"
           width="511.42856"
           height="542.85712"
           x="-191.42857"
           y="29.142857" /></flowRegion><flowPara
         id="flowPara3150"></flowPara></flowRoot>  </g>
  <g
     inkscape:groupmode="layer"
     id="layer2"
     inkscape:label="w">
    <g
       style="font-size:100px;font-style:normal;font-variant:normal;font-weight:normal;font-stretch:normal;line-height:125%;letter-spacing:0px;word-spacing:0px;fill:#000000;fill-opacity:1;stroke:none;font-family:Ubuntu;-inkscape-font-specification:Ubuntu"
       id="text2987"
       transform="matrix(0.64922269,0,0,0.84160505,-11.2357,-36.918367)">
      <path
         d="m 200.07143,479.14285 c -5.00017,-11.33333 -9.3335,-21.66665 -13,-31 -3.66682,-9.3333 -7.33348,-18.66662 -11,-28 -3.33348,-9.33327 -6.83347,-18.99993 -10.5,-29 -3.33347,-10.33324 -7.33346,-21.99989 -12,-35 -4.66679,13.00011 -8.83345,24.66676 -12.5,35 -3.66678,10.00007 -7.33344,19.66673 -11,29 -3.33343,9.33338 -7.00009,18.6667 -11,28 -3.66676,9.33335 -8.00009,19.66667 -13,31 l -31.000003,0 c -9.333371,-40.99996 -17.166696,-81.49992 -23.5,-121.5 -6.000017,-40.33318 -10.500013,-77.16647 -13.5,-110.5 l 39,0 c 0.99995,13.00021 1.999949,25.83354 3,38.5 1.33328,12.33351 2.833279,25.3335 4.5,39 1.666609,13.6668 3.49994,28.50012 5.5,44.5 2.333269,16.00009 4.833267,34.00007 7.5,54 5.333263,-13.33327 9.833253,-24.99992 13.500003,-35 3.66658,-9.9999 6.99991,-19.49989 10,-28.5 2.9999,-8.99988 5.83323,-18.16653 8.5,-27.5 2.9999,-9.33318 6.16656,-19.83317 9.5,-31.5 l 31,0 c 3.33319,11.66683 6.33319,22.16682 9,31.5 2.66651,9.33347 5.49984,18.50012 8.5,27.5 2.99984,9.00011 6.1665,18.5001 9.5,28.5 3.33316,10.00008 7.49982,21.50007 12.5,34.5 2.99982,-18.33326 5.66648,-35.33325 8,-51 2.33314,-15.66655 4.33314,-30.3332 6,-44 1.66647,-13.99984 3.16647,-27.49983 4.5,-40.5 1.33313,-12.9998 3.5,-40 3.5,-40 l 37.5,0 c 0,0 -3.6669,34.50019 -6,53.5 -2.33357,19.00016 -5.1669,38.50014 -8.5,58.5 -3.33356,20.0001 -7.00022,40.33341 -11,61 -4.00021,20.33337 -8.16687,40.00001 -12.5,59 l -31,0"
         style="font-size:500px;font-family:Ubuntu Mono;-inkscape-font-specification:Ubuntu Mono"
         id="path3020"
         inkscape:connector-curvature="0"
         sodipodi:nodetypes="cccccccccccccccccscccccccccccccccccc" />
    </g>
  </g>
  <g
     inkscape:groupmode="layer"
     id="layer3"
     inkscape:label="s"
     style="display:inline">
    <g
       style="font-size:500px;font-style:normal;font-variant:normal;font-weight:normal;font-stretch:normal;line-height:125%;letter-spacing:0px;word-spacing:0px;fill:#800000;fill-opacity:1;stroke:none;font-family:Ubuntu Mono;-inkscape-font-specification:Ubuntu Mono"
       id="text2991"
       transform="matrix(0.64922269,0,0,0.84160505,-23.851908,131.67672)">
      <path
         d="m 431.21427,217.14284 c -1.7e-4,-8.33327 -3.50017,-15.16659 -10.5,-20.5 -6.66682,-5.33325 -15.16682,-9.99991 -25.5,-14 -10.00013,-3.9999 -21.00012,-7.83323 -33,-11.5 -12.00009,-3.99989 -23.16675,-8.83322 -33.5,-14.5 -10.00006,-5.66654 -18.50005,-12.66653 -25.5,-21 -6.66671,-8.33318 -10.00004,-19.16651 -10,-32.5 -4e-5,-18.666476 7.49996,-34.16646 22.5,-46.5 15.33326,-12.666435 39.16657,-18.999762 71.5,-19 12.66652,2.38e-4 25.66651,1.000237 39,3 13.66648,1.6669 25.33314,4.000231 35,7 l -7.5,37 c -2.66686,-1.333141 -6.33352,-2.666473 -11,-4 -4.66685,-1.66647 -10.00018,-2.999802 -16,-4 -6.00016,-1.333133 -12.50016,-2.333132 -19.5,-3 -6.66681,-0.666464 -13.1668,-0.999797 -19.5,-1 -36.00009,2.03e-4 -54.00008,9.833526 -54,29.5 -8e-5,7.00017 3.33325,13.00016 10,18 6.99991,4.66682 15.66656,9.00015 26,13 10.33321,4.00014 21.49987,8.1668 33.5,12.5 11.99984,4.00013 23.1665,9.00012 33.5,15 10.33314,6.00011 18.83313,13.33344 25.5,22 6.99979,8.33342 10.49978,19.00007 10.5,32 -2.2e-4,21.00004 -8.16687,37.33336 -24.5,49 -16.33351,11.33333 -42.16682,17 -77.5,17 -16.0001,0 -28.8565,-0.38589 -43.28571,-0.42857 -11.95243,-0.0354 -35.85715,0.14286 -35.85715,0.14286 l 0.14286,-35.71429 c 0,0 16.33327,-0.52377 28.64286,0.64286 13.35705,0.83337 39.69037,0.35717 54.35714,0.35714 37.66651,3e-5 56.49983,-9.49996 56.5,-28.5"
         id="path3017"
         inkscape:connector-curvature="0"
         sodipodi:nodetypes="ccccccscccccccccccccccccsacccsc"
         style="fill:#800000" />
    </g>
  </g>
</svg>
